<?xml version="1.0" standalone="no"?>
<!DOCTYPE svg PUBLIC "-//W3C//DTD SVG 20010904//EN"
 "http://www.w3.org/TR/2001/REC-SVG-20010904/DTD/svg10.dtd">
<svg version="1.0" xmlns="http://www.w3.org/2000/svg"
 width="500.000000pt" height="500.000000pt" viewBox="0 0 500.000000 500.000000"
 preserveAspectRatio="xMidYMid meet">

<g transform="translate(0.000000,500.000000) scale(0.100000,-0.100000)"
fill="#000000" stroke="none">
<path d="M2013 3069 c-24 -11 -55 -35 -70 -52 -16 -18 -120 -187 -232 -377
-141 -238 -204 -354 -204 -374 0 -19 9 -37 27 -53 l27 -23 1393 0 c1552 0
1460 -4 1534 68 22 22 122 180 242 382 219 370 228 393 181 431 -22 18 -71 19
-1440 19 l-1416 0 -42 -21z m210 -212 c59 -25 87 -62 87 -114 0 -50 -27 -98
-61 -108 -20 -7 -20 -8 7 -25 51 -31 67 -57 72 -115 4 -53 3 -56 -34 -94 -23
-22 -57 -44 -79 -50 -22 -6 -111 -11 -197 -11 l-158 0 0 263 c0 145 3 267 8
271 14 15 314 0 355 -17z m494 8 c60 -18 135 -81 165 -138 46 -92 31 -215 -38
-295 -104 -122 -315 -131 -432 -19 -48 46 -74 102 -80 173 -16 202 176 341
385 279z m551 -32 c78 -184 202 -482 202 -487 0 -3 -33 -6 -73 -6 l-72 0 -18
50 -18 51 -116 -3 -115 -3 -18 -45 -18 -45 -71 -3 c-39 -2 -71 -1 -71 2 0 2
45 108 100 236 55 127 107 246 114 265 l15 35 69 0 70 0 20 -47z m557 23 c78
-33 115 -88 115 -171 0 -58 -21 -108 -61 -144 l-32 -30 52 -81 c28 -44 51 -83
51 -86 0 -3 -35 -4 -77 -2 l-78 3 -38 73 -38 72 -49 0 -50 0 0 -75 0 -75 -70
0 -70 0 0 271 0 272 153 -5 c112 -4 163 -10 192 -22z m508 -1 c107 -38 174
-148 165 -269 -7 -76 -35 -133 -90 -180 -62 -53 -117 -66 -285 -66 l-143 0 0
263 c0 145 3 267 8 271 14 15 293 -1 345 -19z"/>
<path d="M2000 2715 l0 -55 63 0 c72 0 107 18 107 55 0 37 -35 55 -107 55
l-63 0 0 -55z"/>
<path d="M2000 2505 l0 -55 75 0 c62 0 79 4 95 20 11 11 20 27 20 35 0 8 -9
24 -20 35 -16 16 -33 20 -95 20 l-75 0 0 -55z"/>
<path d="M2542 2740 c-68 -42 -91 -156 -44 -219 60 -81 154 -94 219 -29 72 72
62 198 -20 248 -42 26 -112 26 -155 0z"/>
<path d="M3137 2639 c-20 -51 -35 -94 -33 -96 2 -2 35 -3 74 -1 l70 3 -29 75
c-16 41 -33 83 -37 93 -6 15 -16 -3 -45 -74z"/>
<path d="M3620 2680 l0 -80 69 0 c81 0 109 17 117 70 4 27 1 42 -16 63 -20 25
-27 27 -96 27 l-74 0 0 -80z"/>
<path d="M4120 2606 l0 -156 65 0 c39 0 78 6 95 15 90 46 106 187 30 260 -28
27 -39 30 -111 34 l-79 3 0 -156z"/>
<path d="M601 2870 c-88 -19 -161 -79 -196 -163 -19 -47 -19 -157 0 -205 22
-52 81 -110 140 -138 56 -27 166 -33 226 -12 180 61 245 284 124 425 -64 76
-188 114 -294 93z m149 -129 c45 -32 70 -80 70 -133 0 -92 -49 -149 -134 -156
-44 -4 -62 0 -91 18 -65 40 -92 130 -61 204 14 35 66 80 101 89 32 8 88 -2
115 -22z"/>
<path d="M50 2820 l0 -50 90 0 90 0 0 -143 c0 -127 -2 -146 -18 -160 -27 -24
-72 -21 -114 8 -20 14 -39 25 -41 25 -2 0 -16 -18 -31 -41 -32 -48 -28 -58 46
-95 99 -50 227 -24 268 56 18 35 20 58 20 245 l0 205 -155 0 -155 0 0 -50z"/>
<path d="M990 2605 l0 -265 148 0 c179 0 235 13 281 65 26 30 31 44 31 85 0
41 -5 55 -31 84 -16 19 -39 38 -51 42 -19 6 -18 7 10 24 40 25 52 49 52 104 0
36 -6 50 -29 73 -43 43 -91 53 -260 53 l-151 0 0 -265z m292 148 c22 -20 23
-51 1 -75 -13 -14 -31 -18 -90 -18 l-73 0 0 55 0 55 72 0 c52 0 76 -4 90 -17z
m18 -213 c25 -25 25 -41 1 -71 -17 -21 -30 -24 -100 -27 l-81 -4 0 61 0 61 80
0 c67 0 83 -3 100 -20z"/>
</g>
</svg>
